<?xml version="1.0" encoding="utf-8"?>
<svg id="master-artboard" viewBox="0 0 187.947509765625 371.6329650878906" version="1.1" xmlns="http://www.w3.org/2000/svg" x="0px" y="0px" enable-background="new 0 0 1400 980" width="187.947509765625px" height="371.6329650878906px"><rect id="ee-background" x="0" y="0" width="187.947509765625" height="371.6329650878906" style="fill: white; fill-opacity: 0; pointer-events: none;"/>
<path d="M 606 74 H 794 V 446 H 606 V 74 Z" fill="#FFAB91" transform="matrix(1, 0, 0, 1, -605.9503784179688, -74.04670524597168)"/><path d="M 615 83 H 785 V 446 H 615 V 83 Z" fill="#F4947B" transform="matrix(1, 0, 0, 1, -605.9503784179688, -74.04670524597168)"/><path d="M 618 86 H 782 V 446 H 618 V 86 Z" fill="#FFAB91" transform="matrix(1, 0, 0, 1, -605.9503784179688, -74.04670524597168)"/><path d="M 642 264.5 H 693 V 422 H 642 V 264.5 Z" fill="#FFBBA9" transform="matrix(1, 0, 0, 1, -605.9503784179688, -74.04670524597168)"/><path d="M 645 267.5 H 690 V 419 H 645 V 267.5 Z" fill="#84AEAF" transform="matrix(1, 0, 0, 1, -605.9503784179688, -74.04670524597168)"/><path d="M 650 272.5 H 685 V 414 H 650 V 272.5 Z" fill="#A5C9CE" transform="matrix(1, 0, 0, 1, -605.9503784179688, -74.04670524597168)"/><path d="M 685 272.5 L 685 293.57000732421875 L 656.0399780273438 414 L 650 414 L 650 378.2799987792969 L 675.4400024414062 272.5 Z" fill="#B8D5D8" transform="matrix(1, 0, 0, 1, -605.9503784179688, -74.04670524597168)"/><path d="M 685 325.0199890136719 L 685 360.6600036621094 L 672.1699829101562 414 L 663.5999755859375 414 Z" fill="#B8D5D8" transform="matrix(1, 0, 0, 1, -605.9503784179688, -74.04670524597168)"/><path d="M 707 264.5 H 758 V 422 H 707 V 264.5 Z" fill="#FFBBA9" transform="matrix(1, 0, 0, 1, -605.9503784179688, -74.04670524597168)"/><path d="M 710 267.5 H 755 V 419 H 710 V 267.5 Z" fill="#F4947B" transform="matrix(1, 0, 0, 1, -605.9503784179688, -74.04670524597168)"/><path d="M 715 272.5 H 750 V 414 H 715 V 272.5 Z" fill="#FFAB91" transform="matrix(1, 0, 0, 1, -605.9503784179688, -74.04670524597168)"/><path fill="#FFBBA9" d="M758,210.5h-51v-75c0-14.08,11.42-25.5,25.5-25.5l0,0c14.08,0,25.5,11.42,25.5,25.5V210.5z" transform="matrix(1, 0, 0, 1, -605.9503784179688, -74.04670524597168)"/><path fill="#84AEAF" d="M755,207.5h-45v-72.08c0-12.43,10.07-22.5,22.5-22.5l0,0c12.43,0,22.5,10.07,22.5,22.5V207.5z" transform="matrix(1, 0, 0, 1, -605.9503784179688, -74.04670524597168)"/><path fill="#A5C9CE" d="M750,202.5h-35v-67c0-9.66,7.84-17.5,17.5-17.5l0,0c9.66,0,17.5,7.84,17.5,17.5V202.5z" transform="matrix(1, 0, 0, 1, -605.9503784179688, -74.04670524597168)"/><path fill="#B8D5D8" d="M741.66,120.6l-19.69,81.9H715v-31.86l12.48-51.9c1.59-0.48,3.27-0.74,5.02-0.74&#10;&#9;&#9;&#9;&#9;&#9;C735.86,118,739,118.95,741.66,120.6z" transform="matrix(1, 0, 0, 1, -605.9503784179688, -74.04670524597168)"/><path fill="#B8D5D8" d="M750,135.5v17.51l-11.9,49.49h-8.57l18.19-75.63C749.17,129.42,750,132.36,750,135.5z" transform="matrix(1, 0, 0, 1, -605.9503784179688, -74.04670524597168)"/><path d="M 642 223.5 H 758 V 251.5 H 642 V 223.5 Z" fill="#FFBBA9" transform="matrix(1, 0, 0, 1, -605.9503784179688, -74.04670524597168)"/><path d="M 645 226.5 H 755 V 248.5 H 645 V 226.5 Z" fill="#F4947B" transform="matrix(1, 0, 0, 1, -605.9503784179688, -74.04670524597168)"/><path d="M 650 231.5 H 750 V 243.5 H 650 V 231.5 Z" fill="#FFAB91" transform="matrix(1, 0, 0, 1, -605.9503784179688, -74.04670524597168)"/><path fill="#FFBBA9" d="M693,210.5h-51v-75c0-14.08,11.42-25.5,25.5-25.5l0,0c14.08,0,25.5,11.42,25.5,25.5V210.5z" transform="matrix(1, 0, 0, 1, -605.9503784179688, -74.04670524597168)"/><path fill="#F4947B" d="M690,207.5h-45v-72.08c0-12.43,10.07-22.5,22.5-22.5l0,0c12.43,0,22.5,10.07,22.5,22.5V207.5z" transform="matrix(1, 0, 0, 1, -605.9503784179688, -74.04670524597168)"/><path fill="#FFAB91" d="M685,202.5h-35v-67c0-9.66,7.84-17.5,17.5-17.5l0,0c9.66,0,17.5,7.84,17.5,17.5V202.5z" transform="matrix(1, 0, 0, 1, -605.9503784179688, -74.04670524597168)"/><g transform="matrix(1, 0, 0, 1, -605.9503784179688, -74.04670524597168)">
				<path fill="#F4947B" d="M769.65,285.73c-2.06,0-3.97-1.08-5.04-2.81c-1.73-1.07-2.81-2.98-2.81-5.04v-33.5&#10;&#9;&#9;&#9;&#9;&#9;c0-2.06,1.08-3.97,2.81-5.04c1.07-1.73,2.98-2.81,5.04-2.81s3.97,1.08,5.04,2.81c1.73,1.07,2.81,2.98,2.81,5.04v33.5&#10;&#9;&#9;&#9;&#9;&#9;c0,2.06-1.08,3.97-2.81,5.04C773.62,284.65,771.71,285.73,769.65,285.73z"/>
				<path fill="#E4B660" d="M769.65,283.73c-1.58,0-2.95-0.94-3.57-2.29c-1.35-0.62-2.29-1.99-2.29-3.57v-33.5&#10;&#9;&#9;&#9;&#9;&#9;c0-1.58,0.94-2.95,2.29-3.57c0.62-1.35,1.99-2.29,3.57-2.29s2.95,0.94,3.57,2.29c1.35,0.62,2.29,1.99,2.29,3.57v33.5&#10;&#9;&#9;&#9;&#9;&#9;c0,1.58-0.94,2.95-2.29,3.57C772.59,282.79,771.23,283.73,769.65,283.73z"/>
				<path fill="#FFE896" d="M771.57,242.45c0-1.06-0.86-1.93-1.93-1.93c-1.06,0-1.93,0.86-1.93,1.93c-1.06,0-1.93,0.86-1.93,1.93&#10;&#9;&#9;&#9;&#9;&#9;v33.5c0,1.06,0.86,1.93,1.93,1.93c0,1.06,0.86,1.93,1.93,1.93c1.06,0,1.93-0.86,1.93-1.93c1.06,0,1.93-0.86,1.93-1.93v-33.5&#10;&#9;&#9;&#9;&#9;&#9;C773.5,243.31,772.64,242.45,771.57,242.45z"/>
				<path fill="#515151" d="M771.15,266.88c0-0.83-0.67-1.5-1.5-1.5s-1.5,0.67-1.5,1.5c0,0.55,0.3,1.03,0.75,1.29v1.71&#10;&#9;&#9;&#9;&#9;&#9;c0,0.41,0.34,0.75,0.75,0.75s0.75-0.34,0.75-0.75v-1.71C770.84,267.91,771.15,267.43,771.15,266.88z"/>
			</g><path fill="#F4947B" d="M763.79,251.88v6.33l-12.64,4.22c-0.71,0.23-1.45,0.35-2.19,0.35c-1.59,0-3.15-0.56-4.38-1.59&#10;&#9;&#9;&#9;&#9;&#9;c-1.85-1.54-2.75-3.87-2.41-6.25c0.21-1.47,1.48-2.58,2.96-2.58c0.15,0,0.29,0.01,0.44,0.03c0.79,0.12,1.49,0.53,1.97,1.17&#10;&#9;&#9;&#9;&#9;&#9;c0.48,0.64,0.68,1.43,0.57,2.23c-0.04,0.31,0.06,0.58,0.31,0.79c0.16,0.14,0.34,0.21,0.54,0.21c0.09,0,0.19-0.02,0.29-0.05&#10;&#9;&#9;&#9;&#9;&#9;L763.79,251.88z" transform="matrix(1, 0, 0, 1, -605.9503784179688, -74.04670524597168)"/><path fill="#E4B660" d="M772.92,259.31c-0.21,1.47-1.48,2.58-2.97,2.58c-0.14,0-0.28-0.01-0.42-0.03&#10;&#9;&#9;&#9;&#9;&#9;c-1.64-0.23-2.78-1.76-2.55-3.39c0.05-0.32-0.05-0.59-0.3-0.79c-0.17-0.14-0.35-0.21-0.54-0.21c-0.1,0-0.2,0.01-0.29,0.05&#10;&#9;&#9;&#9;&#9;&#9;l-2.06,0.69v-6.33l0.15-0.05c0.71-0.24,1.45-0.36,2.19-0.36c1.6,0,3.15,0.57,4.39,1.6C772.36,254.6,773.26,256.94,772.92,259.31&#10;&#9;&#9;&#9;&#9;&#9;z" transform="matrix(1, 0, 0, 1, -605.9503784179688, -74.04670524597168)"/><path fill="#FFE896" d="M748.96,261.28c-1.23,0-2.44-0.43-3.43-1.25c-1.44-1.2-2.14-3.03-1.88-4.88&#10;&#9;&#9;&#9;&#9;&#9;c0.12-0.82,0.87-1.39,1.7-1.27c0.82,0.12,1.39,0.88,1.27,1.7c-0.12,0.83,0.18,1.62,0.83,2.16c0.64,0.54,1.47,0.69,2.27,0.43&#10;&#9;&#9;&#9;&#9;&#9;l14.69-4.91c1.78-0.59,3.7-0.23,5.14,0.97s2.14,3.03,1.88,4.88c-0.12,0.82-0.88,1.39-1.7,1.27c-0.82-0.12-1.39-0.88-1.27-1.7&#10;&#9;&#9;&#9;&#9;&#9;c0.12-0.83-0.18-1.62-0.83-2.16c-0.65-0.54-1.47-0.7-2.27-0.43L750.68,261C750.11,261.19,749.54,261.28,748.96,261.28z" transform="matrix(1, 0, 0, 1, -605.9503784179688, -74.04670524597168)"/>
</svg>