<?xml version="1.0" encoding="utf-8"?>
<svg id="master-artboard" viewBox="0 0 188.24505615234375 371.6329650878906" version="1.1" xmlns="http://www.w3.org/2000/svg" x="0px" y="0px" enable-background="new 0 0 1400 980" width="188.24505615234375px" height="371.6329650878906px"><rect id="ee-background" x="0" y="0" width="188.24505615234375" height="371.6329650878906" style="fill: white; fill-opacity: 0; pointer-events: none;"/>
<path d="M 857 74 H 1045 V 446 H 857 V 74 Z" fill="#F9D78F" transform="matrix(1, 0, 0, 1, -856.8400163650513, -74.04670715332031)"/><path d="M 866 83 H 1036 V 446 H 866 V 83 Z" fill="#E9C885" transform="matrix(1, 0, 0, 1, -856.8400163650513, -74.04670715332031)"/><path d="M 869 86 H 1033 V 446 H 869 V 86 Z" fill="#F9D78F" transform="matrix(1, 0, 0, 1, -856.8400163650513, -74.04670715332031)"/><path d="M 893 391 H 1009 V 422 H 893 V 391 Z" fill="#FFE0A9" transform="matrix(1, 0, 0, 1, -856.8400163650513, -74.04670715332031)"/><path d="M 896 394 H 1006 V 419 H 896 V 394 Z" fill="#E9C885" transform="matrix(1, 0, 0, 1, -856.8400163650513, -74.04670715332031)"/><path d="M 901 399 H 1001 V 414 H 901 V 399 Z" fill="#F9D78F" transform="matrix(1, 0, 0, 1, -856.8400163650513, -74.04670715332031)"/><path d="M 893 306 H 1009 V 337 H 893 V 306 Z" fill="#FFE0A9" transform="matrix(1, 0, 0, 1, -856.8400163650513, -74.04670715332031)"/><path d="M 896 309 H 1006 V 334 H 896 V 309 Z" fill="#E9C885" transform="matrix(1, 0, 0, 1, -856.8400163650513, -74.04670715332031)"/><path d="M 901 314 H 1001 V 329 H 901 V 314 Z" fill="#F9D78F" transform="matrix(1, 0, 0, 1, -856.8400163650513, -74.04670715332031)"/><g transform="matrix(1, 0, 0, 1, -856.8400163650513, -74.04670715332031)">
				<path d="M 893 350 H 1009 V 378 H 893 V 350 Z" fill="#FFE0A9"/>
				<path d="M 896 353 H 1006 V 375 H 896 V 353 Z" fill="#E9C885"/>
				<path d="M 901 358 H 1001 V 370 H 901 V 358 Z" fill="#F9D78F"/>
			</g><path d="M 893 223.5 H 944 V 292.5 H 893 V 223.5 Z" fill="#FFE0A9" transform="matrix(1, 0, 0, 1, -856.8400163650513, -74.04670715332031)"/><path d="M 896 226.5 H 941 V 289.5 H 896 V 226.5 Z" fill="#84AEAF" transform="matrix(1, 0, 0, 1, -856.8400163650513, -74.04670715332031)"/><path d="M 901 231.5 H 936 V 284.5 H 901 V 231.5 Z" fill="#A5C9CE" transform="matrix(1, 0, 0, 1, -856.8400163650513, -74.04670715332031)"/><path d="M 921.989990234375 231.5 L 909.25 284.5 L 901 284.5 L 901 257.9599914550781 L 907.3599853515625 231.5 Z" fill="#B8D5D8" transform="matrix(1, 0, 0, 1, -856.8400163650513, -74.04670715332031)"/><path d="M 936 231.5 L 936 240.33999633789062 L 925.3800048828125 284.5 L 916.8099975585938 284.5 L 929.5599975585938 231.5 Z" fill="#B8D5D8" transform="matrix(1, 0, 0, 1, -856.8400163650513, -74.04670715332031)"/><path d="M 958 223.5 H 1009 V 292.5 H 958 V 223.5 Z" fill="#FFE0A9" transform="matrix(1, 0, 0, 1, -856.8400163650513, -74.04670715332031)"/><path d="M 961 226.5 H 1006 V 289.5 H 961 V 226.5 Z" fill="#84AEAF" transform="matrix(1, 0, 0, 1, -856.8400163650513, -74.04670715332031)"/><path d="M 966 231.5 H 1001 V 284.5 H 966 V 231.5 Z" fill="#A5C9CE" transform="matrix(1, 0, 0, 1, -856.8400163650513, -74.04670715332031)"/><path d="M 986.989990234375 231.5 L 974.25 284.5 L 966 284.5 L 966 257.9599914550781 L 972.3599853515625 231.5 Z" fill="#B8D5D8" transform="matrix(1, 0, 0, 1, -856.8400163650513, -74.04670715332031)"/><path d="M 1001 231.5 L 1001 240.33999633789062 L 990.3800048828125 284.5 L 981.8099975585938 284.5 L 994.5599975585938 231.5 Z" fill="#B8D5D8" transform="matrix(1, 0, 0, 1, -856.8400163650513, -74.04670715332031)"/><path fill="#FFE0A9" d="M944,110v100.5h-51v-82.12h17.9C917.79,117.35,930.03,110,944,110z" transform="matrix(1, 0, 0, 1, -856.8400163650513, -74.04670715332031)"/><path fill="#84AEAF" d="M941,113.05v94.45h-45v-76.12h16.51C918.23,121.19,928.74,114.05,941,113.05z" transform="matrix(1, 0, 0, 1, -856.8400163650513, -74.04670715332031)"/><path fill="#A5C9CE" d="M936,119.04v83.46h-35v-66.12h14.68C919.46,127.92,926.91,121.46,936,119.04z" transform="matrix(1, 0, 0, 1, -856.8400163650513, -74.04670715332031)"/><path fill="#B8D5D8" d="M927.08,123.02l-19.11,79.48H901v-31.86l8.24-34.26h6.44C918.13,130.91,922.11,126.27,927.08,123.02z" transform="matrix(1, 0, 0, 1, -856.8400163650513, -74.04670715332031)"/><path fill="#B8D5D8" d="M936,119.04v33.97l-11.9,49.49h-8.57l20.04-83.34C935.71,119.12,935.86,119.08,936,119.04z" transform="matrix(1, 0, 0, 1, -856.8400163650513, -74.04670715332031)"/><path fill="#FFE0A9" d="M958,110v100.5h51v-82.12h-17.9C984.21,117.35,971.97,110,958,110z" transform="matrix(1, 0, 0, 1, -856.8400163650513, -74.04670715332031)"/><path fill="#84AEAF" d="M961,113.05v94.45h45v-76.12h-16.51C983.77,121.19,973.26,114.05,961,113.05z" transform="matrix(1, 0, 0, 1, -856.8400163650513, -74.04670715332031)"/><path fill="#A5C9CE" d="M966,119.04v83.46h35v-66.12h-14.68C982.54,127.92,975.09,121.46,966,119.04z" transform="matrix(1, 0, 0, 1, -856.8400163650513, -74.04670715332031)"/><path fill="#B8D5D8" d="M988.87,136.38l-15.9,66.12H966v-31.86l11.08-46.07c3.97,3.1,7.16,7.15,9.24,11.81H988.87z" transform="matrix(1, 0, 0, 1, -856.8400163650513, -74.04670715332031)"/><path d="M 1001 136.3800048828125 L 1001 153.00999450683594 L 989.0999755859375 202.5 L 980.530029296875 202.5 L 996.4299926757812 136.3800048828125 Z" fill="#B8D5D8" transform="matrix(1, 0, 0, 1, -856.8400163650513, -74.04670715332031)"/><g transform="matrix(1, 0, 0, 1, -856.8400163650513, -74.04670715332031)">
				<path fill="#E9C885" d="M1020.65,285.73c-2.06,0-3.97-1.08-5.04-2.81c-1.73-1.07-2.81-2.98-2.81-5.04v-33.5&#10;&#9;&#9;&#9;&#9;&#9;c0-2.06,1.08-3.97,2.81-5.04c1.07-1.73,2.98-2.81,5.04-2.81s3.97,1.08,5.04,2.81c1.73,1.07,2.81,2.98,2.81,5.04v33.5&#10;&#9;&#9;&#9;&#9;&#9;c0,2.06-1.08,3.97-2.81,5.04C1024.62,284.65,1022.71,285.73,1020.65,285.73z"/>
				<path fill="#E4B660" d="M1020.65,283.73c-1.58,0-2.95-0.94-3.57-2.29c-1.35-0.62-2.29-1.99-2.29-3.57v-33.5&#10;&#9;&#9;&#9;&#9;&#9;c0-1.58,0.94-2.95,2.29-3.57c0.62-1.35,1.99-2.29,3.57-2.29s2.95,0.94,3.57,2.29c1.35,0.62,2.29,1.99,2.29,3.57v33.5&#10;&#9;&#9;&#9;&#9;&#9;c0,1.58-0.94,2.95-2.29,3.57C1023.59,282.79,1022.23,283.73,1020.65,283.73z"/>
				<path fill="#FFE896" d="M1022.57,242.45c0-1.06-0.86-1.93-1.93-1.93c-1.06,0-1.93,0.86-1.93,1.93c-1.06,0-1.93,0.86-1.93,1.93&#10;&#9;&#9;&#9;&#9;&#9;v33.5c0,1.06,0.86,1.93,1.93,1.93c0,1.06,0.86,1.93,1.93,1.93c1.06,0,1.93-0.86,1.93-1.93c1.06,0,1.93-0.86,1.93-1.93v-33.5&#10;&#9;&#9;&#9;&#9;&#9;C1024.5,243.31,1023.64,242.45,1022.57,242.45z"/>
				<path fill="#515151" d="M1022.15,266.88c0-0.83-0.67-1.5-1.5-1.5s-1.5,0.67-1.5,1.5c0,0.55,0.3,1.03,0.75,1.29v1.71&#10;&#9;&#9;&#9;&#9;&#9;c0,0.41,0.34,0.75,0.75,0.75s0.75-0.34,0.75-0.75v-1.71C1021.84,267.91,1022.15,267.43,1022.15,266.88z"/>
			</g><path fill="#E9C885" d="M1014.79,251.88v6.33l-12.64,4.22c-0.71,0.23-1.45,0.35-2.19,0.35c-1.59,0-3.15-0.56-4.38-1.59&#10;&#9;&#9;&#9;&#9;&#9;c-1.85-1.54-2.75-3.87-2.41-6.25c0.21-1.47,1.48-2.58,2.96-2.58c0.15,0,0.29,0.01,0.44,0.03c0.79,0.12,1.49,0.53,1.97,1.17&#10;&#9;&#9;&#9;&#9;&#9;c0.48,0.64,0.68,1.43,0.57,2.23c-0.04,0.31,0.06,0.58,0.31,0.79c0.16,0.14,0.34,0.21,0.54,0.21c0.09,0,0.19-0.02,0.29-0.05&#10;&#9;&#9;&#9;&#9;&#9;L1014.79,251.88z" transform="matrix(1, 0, 0, 1, -856.8400163650513, -74.04670715332031)"/><path fill="#E4B660" d="M1023.92,259.31c-0.21,1.47-1.48,2.58-2.97,2.58c-0.14,0-0.28-0.01-0.42-0.03&#10;&#9;&#9;&#9;&#9;&#9;c-1.64-0.23-2.78-1.76-2.55-3.39c0.05-0.32-0.05-0.59-0.3-0.79c-0.17-0.14-0.35-0.21-0.54-0.21c-0.1,0-0.2,0.01-0.29,0.05&#10;&#9;&#9;&#9;&#9;&#9;l-2.06,0.69v-6.33l0.15-0.05c0.71-0.24,1.45-0.36,2.19-0.36c1.6,0,3.15,0.57,4.39,1.6&#10;&#9;&#9;&#9;&#9;&#9;C1023.36,254.6,1024.26,256.94,1023.92,259.31z" transform="matrix(1, 0, 0, 1, -856.8400163650513, -74.04670715332031)"/><path fill="#FFE896" d="M999.96,261.28c-1.23,0-2.44-0.43-3.43-1.25c-1.44-1.2-2.14-3.03-1.88-4.88&#10;&#9;&#9;&#9;&#9;&#9;c0.12-0.82,0.87-1.39,1.7-1.27c0.82,0.12,1.39,0.88,1.27,1.7c-0.12,0.83,0.18,1.62,0.83,2.16c0.64,0.54,1.47,0.69,2.27,0.43&#10;&#9;&#9;&#9;&#9;&#9;l14.69-4.91c1.78-0.59,3.7-0.23,5.14,0.97s2.14,3.03,1.88,4.88c-0.12,0.82-0.88,1.39-1.7,1.27c-0.82-0.12-1.39-0.88-1.27-1.7&#10;&#9;&#9;&#9;&#9;&#9;c0.12-0.83-0.18-1.62-0.83-2.16c-0.65-0.54-1.47-0.7-2.27-0.43l-14.69,4.91C1001.11,261.19,1000.54,261.28,999.96,261.28z" transform="matrix(1, 0, 0, 1, -856.8400163650513, -74.04670715332031)"/>
</svg>