<?xml version="1.0" encoding="utf-8"?>
<svg id="master-artboard" viewBox="0 0 187.98504257202148 371.6329650878906" version="1.1" xmlns="http://www.w3.org/2000/svg" x="0px" y="0px" enable-background="new 0 0 1400 980" width="187.98504638671875px" height="371.6329650878906px"><rect id="ee-background" x="0" y="0" width="187.98504638671875" height="371.6329650878906" style="fill: white; fill-opacity: 0; pointer-events: none;"/>
<path d="M 1108 74 H 1296 V 446 H 1108 V 74 Z" fill="#696969" transform="matrix(1, 0, 0, 1, -1108.0386605262756, -74.04670715332031)" style="fill: rgb(124, 176, 196);"/><path d="M 1117 83 H 1287 V 446 H 1117 V 83 Z" fill="#515151" transform="matrix(1, 0, 0, 1, -1108.0386605262756, -74.04670715332031)" style="fill: rgb(85, 145, 173);"/><path d="M 1120 86 H 1284 V 446 H 1120 V 86 Z" fill="#696969" transform="matrix(1, 0, 0, 1, -1108.0386605262756, -74.04670715332031)" style="fill: rgb(124, 176, 196);"/><path d="M 1209 110 H 1260 V 210.5 H 1209 V 110 Z" fill="#777777" transform="matrix(1, 0, 0, 1, -1108.0386605262756, -74.04670715332031)" style="fill: rgb(85, 145, 173);"/><path d="M 1212 113 H 1257 V 207.5 H 1212 V 113 Z" fill="#84AEAF" transform="matrix(1, 0, 0, 1, -1108.0386605262756, -74.04670715332031)"/><path d="M 1217 118 H 1252 V 202.5 H 1217 V 118 Z" fill="#A5C9CE" transform="matrix(1, 0, 0, 1, -1108.0386605262756, -74.04670715332031)"/><path d="M 1245.2900390625 118 L 1224.969970703125 202.5 L 1217 202.5 L 1217 174.7899932861328 L 1230.6600341796875 118 Z" fill="#B8D5D8" transform="matrix(1, 0, 0, 1, -1108.0386605262756, -74.04670715332031)"/><path d="M 1252 121.54000091552734 L 1252 157.1699981689453 L 1241.0999755859375 202.5 L 1232.530029296875 202.5 Z" fill="#B8D5D8" transform="matrix(1, 0, 0, 1, -1108.0386605262756, -74.04670715332031)"/><path d="M 1144 110 H 1195 V 292.5 H 1144 V 110 Z" fill="#777777" transform="matrix(1, 0, 0, 1, -1108.0386605262756, -74.04670715332031)" style="fill: rgb(85, 145, 173);"/><path d="M 1147 113 H 1192 V 289.5 H 1147 V 113 Z" fill="#84AEAF" transform="matrix(1, 0, 0, 1, -1108.0386605262756, -74.04670715332031)"/><path d="M 1152 118 H 1187 V 284.5 H 1152 V 118 Z" fill="#A5C9CE" transform="matrix(1, 0, 0, 1, -1108.0386605262756, -74.04670715332031)"/><path d="M 1187 118 L 1187 173.25 L 1160.25 284.5 L 1152 284.5 L 1152 257.9599914550781 L 1185.6600341796875 118 Z" fill="#B8D5D8" transform="matrix(1, 0, 0, 1, -1108.0386605262756, -74.04670715332031)"/><path d="M 1187 204.7100067138672 L 1187 240.33999633789062 L 1176.3800048828125 284.5 L 1167.81005859375 284.5 Z" fill="#B8D5D8" transform="matrix(1, 0, 0, 1, -1108.0386605262756, -74.04670715332031)"/><path d="M 1209 223.5 H 1260 V 292.5 H 1209 V 223.5 Z" fill="#777777" transform="matrix(1, 0, 0, 1, -1108.0386605262756, -74.04670715332031)" style="fill: rgb(85, 145, 173);"/><path d="M 1212 226.5 H 1257 V 289.5 H 1212 V 226.5 Z" fill="#84AEAF" transform="matrix(1, 0, 0, 1, -1108.0386605262756, -74.04670715332031)"/><path d="M 1217 231.5 H 1252 V 284.5 H 1217 V 231.5 Z" fill="#A5C9CE" transform="matrix(1, 0, 0, 1, -1108.0386605262756, -74.04670715332031)"/><path d="M 1237.989990234375 231.5 L 1225.25 284.5 L 1217 284.5 L 1217 257.9599914550781 L 1223.3599853515625 231.5 Z" fill="#B8D5D8" transform="matrix(1, 0, 0, 1, -1108.0386605262756, -74.04670715332031)"/><path d="M 1252 231.5 L 1252 240.33999633789062 L 1241.3800048828125 284.5 L 1232.81005859375 284.5 L 1245.56005859375 231.5 Z" fill="#B8D5D8" transform="matrix(1, 0, 0, 1, -1108.0386605262756, -74.04670715332031)"/><path d="M 1144 306 H 1260 V 422 H 1144 V 306 Z" fill="#777777" transform="matrix(1, 0, 0, 1, -1108.0386605262756, -74.04670715332031)" style="fill: rgb(132, 188, 209);"/><path d="M 1147 309 H 1257 V 419 H 1147 V 309 Z" fill="#515151" transform="matrix(1, 0, 0, 1, -1108.0386605262756, -74.04670715332031)" style="fill: rgb(85, 145, 173);"/><path d="M 1152 314 H 1252 V 414 H 1152 V 314 Z" fill="#696969" transform="matrix(1, 0, 0, 1, -1108.0386605262756, -74.04670715332031)" style="fill: rgb(101, 160, 180);"/><g transform="matrix(1, 0, 0, 1, -1108.0386605262756, -74.04670715332031)">
				<path fill="#515151" d="M1271.65,285.73c-2.06,0-3.97-1.08-5.04-2.81c-1.73-1.07-2.81-2.98-2.81-5.04v-33.5&#10;&#9;&#9;&#9;&#9;&#9;c0-2.06,1.08-3.97,2.81-5.04c1.07-1.73,2.98-2.81,5.04-2.81s3.97,1.08,5.04,2.81c1.73,1.07,2.81,2.98,2.81,5.04v33.5&#10;&#9;&#9;&#9;&#9;&#9;c0,2.06-1.08,3.97-2.81,5.04C1275.62,284.65,1273.71,285.73,1271.65,285.73z" style="fill: rgb(93, 146, 173);"/>
				<path fill="#E4B660" d="M1271.65,283.73c-1.58,0-2.95-0.94-3.57-2.29c-1.35-0.62-2.29-1.99-2.29-3.57v-33.5&#10;&#9;&#9;&#9;&#9;&#9;c0-1.58,0.94-2.95,2.29-3.57c0.62-1.35,1.99-2.29,3.57-2.29s2.95,0.94,3.57,2.29c1.35,0.62,2.29,1.99,2.29,3.57v33.5&#10;&#9;&#9;&#9;&#9;&#9;c0,1.58-0.94,2.95-2.29,3.57C1274.59,282.79,1273.23,283.73,1271.65,283.73z"/>
				<path fill="#FFE896" d="M1273.57,242.45c0-1.06-0.86-1.93-1.93-1.93s-1.93,0.86-1.93,1.93c-1.06,0-1.93,0.86-1.93,1.93v33.5&#10;&#9;&#9;&#9;&#9;&#9;c0,1.06,0.86,1.93,1.93,1.93c0,1.06,0.86,1.93,1.93,1.93s1.93-0.86,1.93-1.93c1.06,0,1.93-0.86,1.93-1.93v-33.5&#10;&#9;&#9;&#9;&#9;&#9;C1275.5,243.31,1274.64,242.45,1273.57,242.45z"/>
				<path fill="#515151" d="M1273.15,266.88c0-0.83-0.67-1.5-1.5-1.5s-1.5,0.67-1.5,1.5c0,0.55,0.3,1.03,0.75,1.29v1.71&#10;&#9;&#9;&#9;&#9;&#9;c0,0.41,0.34,0.75,0.75,0.75s0.75-0.34,0.75-0.75v-1.71C1272.84,267.91,1273.15,267.43,1273.15,266.88z"/>
			</g><path fill="#515151" d="M1265.79,251.88v6.33l-12.64,4.22c-0.71,0.23-1.45,0.35-2.19,0.35c-1.59,0-3.15-0.56-4.38-1.59&#10;&#9;&#9;&#9;&#9;&#9;c-1.85-1.54-2.75-3.87-2.41-6.25c0.21-1.47,1.48-2.58,2.96-2.58c0.15,0,0.29,0.01,0.44,0.03c0.79,0.12,1.49,0.53,1.97,1.17&#10;&#9;&#9;&#9;&#9;&#9;c0.48,0.64,0.68,1.43,0.57,2.23c-0.04,0.31,0.06,0.58,0.31,0.79c0.16,0.14,0.34,0.21,0.54,0.21c0.09,0,0.19-0.02,0.29-0.05&#10;&#9;&#9;&#9;&#9;&#9;L1265.79,251.88z" transform="matrix(1, 0, 0, 1, -1108.0386605262756, -74.04670715332031)" style="fill: rgb(93, 146, 173);"/><path fill="#E4B660" d="M1274.92,259.31c-0.21,1.47-1.48,2.58-2.97,2.58c-0.14,0-0.28-0.01-0.42-0.03&#10;&#9;&#9;&#9;&#9;&#9;c-1.64-0.23-2.78-1.76-2.55-3.39c0.05-0.32-0.05-0.59-0.3-0.79c-0.17-0.14-0.35-0.21-0.54-0.21c-0.1,0-0.2,0.01-0.29,0.05&#10;&#9;&#9;&#9;&#9;&#9;l-2.06,0.69v-6.33l0.15-0.05c0.71-0.24,1.45-0.36,2.19-0.36c1.6,0,3.15,0.57,4.39,1.6&#10;&#9;&#9;&#9;&#9;&#9;C1274.36,254.6,1275.26,256.94,1274.92,259.31z" transform="matrix(1, 0, 0, 1, -1108.0386605262756, -74.04670715332031)"/><path fill="#FFE896" d="M1250.96,261.28c-1.23,0-2.44-0.43-3.43-1.25c-1.44-1.2-2.14-3.03-1.88-4.88&#10;&#9;&#9;&#9;&#9;&#9;c0.12-0.82,0.87-1.39,1.7-1.27c0.82,0.12,1.39,0.88,1.27,1.7c-0.12,0.83,0.18,1.62,0.83,2.16c0.64,0.54,1.47,0.69,2.27,0.43&#10;&#9;&#9;&#9;&#9;&#9;l14.69-4.91c1.78-0.59,3.7-0.23,5.14,0.97s2.14,3.03,1.88,4.88c-0.12,0.82-0.88,1.39-1.7,1.27c-0.82-0.12-1.39-0.88-1.27-1.7&#10;&#9;&#9;&#9;&#9;&#9;c0.12-0.83-0.18-1.62-0.83-2.16c-0.65-0.54-1.47-0.7-2.27-0.43l-14.69,4.91C1252.11,261.19,1251.54,261.28,1250.96,261.28z" transform="matrix(1, 0, 0, 1, -1108.0386605262756, -74.04670715332031)"/>
</svg>